<svg width="128" height="24" viewBox="0 0 128 24" fill="none" xmlns="http://www.w3.org/2000/svg">
<path d="M16.0137 10.1792V13.9331C16.0137 15.4871 15.832 16.8494 15.4688 18.02C15.1156 19.1906 14.6009 20.1694 13.9248 20.9565C13.2588 21.7336 12.4515 22.3188 11.5029 22.7124C10.5645 23.106 9.51497 23.3027 8.35449 23.3027C7.2041 23.3027 6.15462 23.106 5.20605 22.7124C4.26758 22.3188 3.45524 21.7336 2.76904 20.9565C2.09294 20.1694 1.5682 19.1906 1.19482 18.02C0.831543 16.8494 0.649902 15.4871 0.649902 13.9331V10.1792C0.649902 8.60498 0.831543 7.22754 1.19482 6.04688C1.55811 4.85612 2.0778 3.86214 2.75391 3.06494C3.4401 2.26774 4.25244 1.66732 5.19092 1.26367C6.13949 0.860026 7.18392 0.658203 8.32422 0.658203C9.4847 0.658203 10.5342 0.860026 11.4727 1.26367C12.4212 1.66732 13.2336 2.26774 13.9097 3.06494C14.5858 3.86214 15.1055 4.85612 15.4688 6.04688C15.832 7.22754 16.0137 8.60498 16.0137 10.1792ZM12.3657 13.9331V10.1489C12.3657 9.02881 12.2749 8.07015 12.0933 7.27295C11.9217 6.46566 11.6644 5.80973 11.3213 5.30518C10.9782 4.79053 10.5544 4.41211 10.0498 4.16992C9.55534 3.91764 8.98014 3.7915 8.32422 3.7915C7.68848 3.7915 7.11833 3.91764 6.61377 4.16992C6.1193 4.41211 5.69548 4.79053 5.34229 5.30518C4.99919 5.80973 4.73682 6.46566 4.55518 7.27295C4.38363 8.07015 4.29785 9.02881 4.29785 10.1489V13.9331C4.29785 15.033 4.38867 15.9816 4.57031 16.7788C4.75195 17.5659 5.01432 18.2118 5.35742 18.7163C5.71061 19.2108 6.13949 19.5791 6.64404 19.8213C7.1486 20.0635 7.71875 20.1846 8.35449 20.1846C9.00033 20.1846 9.57552 20.0635 10.0801 19.8213C10.5846 19.5791 11.0034 19.2108 11.3364 18.7163C11.6795 18.2118 11.9368 17.5659 12.1084 16.7788C12.2799 15.9816 12.3657 15.033 12.3657 13.9331ZM25.1617 0.960938V23H21.4986V0.960938H25.1617ZM30.7774 0.960938V4.04883H15.9434V0.960938H30.7774ZM40.2282 0.960938V23H36.5651V0.960938H40.2282ZM45.8439 0.960938V4.04883H31.0099V0.960938H45.8439ZM53.0998 3.98828L47.7717 23H43.927L50.9202 0.960938H53.3118L53.0998 3.98828ZM57.3533 23L52.01 3.98828L51.7527 0.960938H54.1897L61.2131 23H57.3533ZM57.4441 14.811V17.8989H47.1814V14.811H57.4441ZM65.699 0.960938V23H62.0208V0.960938H65.699ZM76.7034 0.960938L69.3621 11.6021L64.9573 17.0059L64.2611 13.1611L67.3035 8.65039L72.2532 0.960938H76.7034ZM72.6619 23L67.0765 12.5859L69.6043 9.96729L77.0062 23H72.6619ZM84.9584 3.98828L79.6303 23H75.7855L82.7787 0.960938H85.1703L84.9584 3.98828ZM89.2118 23L83.8686 3.98828L83.6112 0.960938H86.0482L93.0717 23H89.2118ZM89.3026 14.811V17.8989H79.0399V14.811H89.3026ZM93.8945 0.960938H100.555C102.008 0.960938 103.239 1.21322 104.248 1.71777C105.257 2.22233 106.024 2.96908 106.549 3.95801C107.084 4.93685 107.351 6.15283 107.351 7.60596C107.351 8.70589 107.185 9.67464 106.852 10.5122C106.529 11.3498 106.059 12.0562 105.444 12.6313C104.828 13.1965 104.087 13.6354 103.219 13.9482L102.144 14.5386H96.5132L96.498 11.4507H100.464C101.18 11.4507 101.776 11.2943 102.25 10.9814C102.724 10.6686 103.077 10.2347 103.31 9.67969C103.552 9.12467 103.673 8.49398 103.673 7.7876C103.673 7.03076 103.567 6.37484 103.355 5.81982C103.143 5.25472 102.81 4.8208 102.356 4.51807C101.902 4.20524 101.301 4.04883 100.555 4.04883H97.5727V23H93.8945V0.960938ZM104.157 23L99.9643 13.1006L103.794 13.0854L108.093 22.8032V23H104.157ZM118.482 17.3086C118.482 16.8545 118.432 16.4508 118.331 16.0977C118.24 15.7344 118.063 15.4064 117.801 15.1138C117.538 14.8211 117.165 14.5335 116.681 14.251C116.206 13.9684 115.591 13.6808 114.834 13.3882C113.966 13.0552 113.154 12.6919 112.397 12.2983C111.65 11.8947 110.989 11.4406 110.414 10.936C109.849 10.4214 109.405 9.82096 109.082 9.13477C108.759 8.44857 108.598 7.65137 108.598 6.74316C108.598 5.84505 108.754 5.02767 109.067 4.29102C109.39 3.54427 109.844 2.90348 110.429 2.36865C111.025 1.82373 111.731 1.40495 112.548 1.1123C113.366 0.80957 114.269 0.658203 115.258 0.658203C116.681 0.658203 117.897 0.960938 118.906 1.56641C119.925 2.17188 120.702 2.98421 121.237 4.00342C121.782 5.02262 122.054 6.15283 122.054 7.39404H118.391C118.391 6.67757 118.28 6.04183 118.058 5.48682C117.836 4.9318 117.493 4.49788 117.029 4.18506C116.565 3.87223 115.964 3.71582 115.228 3.71582C114.551 3.71582 113.991 3.84701 113.547 4.10938C113.114 4.37174 112.791 4.72998 112.579 5.18408C112.377 5.63818 112.276 6.15788 112.276 6.74316C112.276 7.14681 112.362 7.51514 112.533 7.84814C112.705 8.17106 112.952 8.46875 113.275 8.74121C113.598 9.01367 113.991 9.271 114.456 9.51318C114.92 9.75537 115.455 9.98747 116.06 10.2095C117.089 10.5828 117.988 10.9966 118.754 11.4507C119.521 11.9048 120.152 12.4144 120.647 12.9795C121.151 13.5345 121.524 14.1652 121.767 14.8716C122.019 15.578 122.145 16.3802 122.145 17.2783C122.145 18.1865 121.989 19.014 121.676 19.7607C121.373 20.4974 120.929 21.1281 120.344 21.6528C119.759 22.1776 119.052 22.5863 118.225 22.8789C117.397 23.1615 116.469 23.3027 115.44 23.3027C114.491 23.3027 113.578 23.1615 112.7 22.8789C111.832 22.5964 111.055 22.1675 110.369 21.5923C109.683 21.007 109.138 20.2754 108.734 19.3975C108.34 18.5195 108.144 17.4902 108.144 16.3096H111.822C111.822 17.016 111.908 17.6214 112.079 18.126C112.251 18.6204 112.498 19.0291 112.821 19.3521C113.154 19.6649 113.542 19.897 113.986 20.0483C114.44 20.1896 114.945 20.2603 115.5 20.2603C116.186 20.2603 116.746 20.1392 117.18 19.897C117.624 19.6447 117.952 19.2965 118.164 18.8525C118.376 18.4085 118.482 17.8939 118.482 17.3086ZM123.725 21.1533C123.725 20.568 123.911 20.0786 124.285 19.6851C124.668 19.2915 125.193 19.0947 125.859 19.0947C126.525 19.0947 127.045 19.2915 127.418 19.6851C127.802 20.0786 127.993 20.568 127.993 21.1533C127.993 21.7184 127.802 22.1978 127.418 22.5913C127.045 22.9849 126.525 23.1816 125.859 23.1816C125.193 23.1816 124.668 22.9849 124.285 22.5913C123.911 22.1978 123.725 21.7184 123.725 21.1533Z" fill="#1D1D4A"/>
</svg>
